<svg id="visual" viewBox="0 0 900 600" width="900" height="600" xmlns="http://www.w3.org/2000/svg" xmlns:xlink="http://www.w3.org/1999/xlink" version="1.1"><g transform="translate(896.6412798521391 29.097195294893893)"><path d="M52.9 -94.2C82.8 -63.2 131 -72.5 145 -60.7C159.1 -48.9 138.9 -15.9 146.8 30.5C154.8 76.9 190.7 136.7 174 144.2C157.3 151.8 87.8 107.1 48.2 80.3C8.7 53.6 -0.9 44.8 -16.3 45.1C-31.7 45.4 -52.9 54.8 -83.3 53.4C-113.7 52 -153.4 39.9 -166.5 17.6C-179.6 -4.8 -166.2 -37.3 -143.8 -57C-121.3 -76.8 -89.9 -83.8 -64.4 -116.9C-38.9 -149.9 -19.5 -209 -4 -202.8C11.5 -196.6 23.1 -125.2 52.9 -94.2" fill="#53b30d"></path></g></svg>